# AST/ASF file generated using VICON BodyLanguage
# -----------------------------------------------
:version 1.10
:name VICON
:units
  mass 1.0
  length 0.45
  angle deg
:documentation
   .ast/.asf automatically generated from VICON data using
   VICON BodyBuilder and BodyLanguage model FoxedUp or BRILLIANT.MOD
:root
   order TX TY TZ RX RY RZ
   axis XYZ
   position 0 0 0  
   orientation 0 0 0 
:bonedata
  begin
     id 1 
     name lhipjoint
     direction 0.64773 -0.699417 0.302095 
     length 2.48597 
     axis 0 0 0  XYZ
  end
  begin
     id 2 
     name lfemur
     direction 0.34202 -0.939693 0  
     length 6.71947  
     axis 0 0 20  XYZ
    dof rx ry rz
    limits (-160.0 20.0)
           (-70.0 70.0)
           (-60.0 70.0)
  end
  begin
     id 3 
     name ltibia
     direction 0.34202 -0.939693 0   
     length 8.08777   
     axis 0 0 20   XYZ
    dof rx
    limits (-10.0 170.0)
  end
  begin
     id 4 
     name lfoot
     direction 0.0808503 -0.222134 0.971658   
     length 2.08264   
     axis -90 7.62852e-016 20   XYZ
    dof rx rz
    limits (-45.0 90.0)
           (-70.0 20.0)
  end
  begin
     id 5 
     name ltoes
     direction 1.53502e-011 -4.22007e-011 1   
     length 1.04662   
     axis -90 7.62852e-016 20   XYZ
    dof rx
    limits (-90.0 20.0)
  end
  begin
     id 6 
     name rhipjoint
     direction -0.610924 -0.726792 0.313919   
     length 2.39233  
     axis 0 0 0  XYZ 
  end
  begin
     id 7 
     name rfemur
     direction -0.34202 -0.939693 0   
     length 6.96955   
     axis 0 0 -20   XYZ
    dof rx ry rz
    limits (-160.0 20.0)
           (-70.0 70.0)
           (-70.0 60.0)
  end
  begin
     id 8 
     name rtibia
     direction -0.34202 -0.939693 0   
     length 8.19584   
     axis 0 0 -20   XYZ
    dof rx
    limits (-10.0 170.0)
 end
 begin
     id 9 
     name rfoot
     direction -0.077777 -0.213691 0.9738   
     length 2.07539  
     axis -90 -7.62852e-016 -20   XYZ
    dof rx rz
    limits (-45.0 90.0)
           (-20.0 70.0)
  end
  begin
     id 10 
     name rtoes
     direction -1.53558e-011 -4.22006e-011 1   
     length 1.04381   
     axis -90 -7.62852e-016 -20   XYZ
    dof rx
    limits (-90.0 20.0)
  end
  begin
     id 11 
     name lowerback
     direction -0.00971646 0.996074 0.0879841   
     length 1.67643   
     axis 0 0 0   XYZ
    dof rx ry rz
    limits (-20.0 45.0)
           (-30.0 30.0)
           (-30.0 30.0)
  end
  begin
     id 12 
     name upperback
     direction 0.0127391 0.991676 0.128127   
     length 1.63741   
     axis 0 0 0   XYZ
    dof rx ry rz
    limits (-20.0 45.0)
           (-30.0 30.0)
           (-30.0 30.0)
  end
  begin
     id 13 
     name thorax
     direction 0.0167583 0.996049 0.0872067   
     length 1.65931   
     axis 0 0 0   XYZ
    dof rx ry rz
    limits (-20.0 45.0)
           (-30.0 30.0)
           (-30.0 30.0)
  end
  begin
     id 14 
     name lowerneck
     direction -0.0317829 0.998312 0.0486079   
     length 1.79021   
     axis 0 0 0   XYZ
    dof rx ry rz
    limits (-20.0 45.0)
           (-30.0 30.0)
           (-30.0 30.0)
  end
  begin
     id 15 
     name upperneck
     direction 0.0896851 0.972452 -0.215159   
     length 1.78797   
     axis 0 0 0   XYZ
    dof rx ry rz
    limits (-20.0 45.0)
           (-30.0 30.0)
           (-30.0 30.0)
  end
  begin
     id 16
     name head
     direction 0.0310949 0.996503 -0.0775582  
     length 1.81549  
     axis 0 0 0   XYZ
    dof rx ry rz
    limits (-20.0 45.0)
           (-30.0 30.0)
           (-30.0 30.0)
  end
  begin
     id 17 
     name lclavicle
     direction 0.853638 0.502051 -0.138733  
     length 3.31627  
     axis 0 0 0   XYZ
    dof ry rz
    limits (-20.0 10.0)
           (0.0 20.0)
  end
  begin
     id 18 
     name lhumerus
     direction 1 -4.48962e-011 -1.41788e-018   
     length 5.54893   
     axis 180 -30 -90   XYZ
    dof rx ry rz
    limits (-60.0 90.0)
           (-90.0 90.0)
           (-90.0 90.0)
  end
  begin
     id 19
     name lradius
     direction 1 -4.48962e-011 -4.95754e-027   
     length 3.02898   
     axis 180 -30 -90   XYZ
    dof rx
    limits (-10.0 170.0)
  end
  begin
     id 20
     name lwrist
     direction 1 -4.48952e-011 -1.03764e-026   
     length 1.51449   
     axis 9.09556e-015 90 90   XYZ
    dof ry
    limits (-180.0 0.0)
 end
  begin
     id 21 
     name lhand
     direction 1 -4.4902e-011 -2.07528e-026   
     length 0.640951   
     axis 1.3242e-014 90 90   XYZ
    dof rx rz
    limits (-90.0 90.0)
           (-45.0 45.0)
  end
  begin
     id 22 
     name lfingers
     direction 1 -4.49014e-011 -4.15056e-026   
     length 0.516751   
     axis 2.64841e-014 90 90   XYZ
    dof rx
    limits (0.0 90.0)
  end
  begin
     id 23
     name lthumb
     direction 0.707107 -6.35008e-011 0.707107   
     length 0.741954   
     axis -90 45 2.85299e-015   XYZ
    dof rx rz
    limits (-45.0 45.0)
           (-45.0 45.0)
  end
  begin
     id 24 
     name rclavicle
     direction -0.888531 0.455324 -0.0565039   
     length 3.20126  
     axis 0 0 0   XYZ 
    dof ry rz
    limits (-10.0 20.0)
           (-20.0 0.0)
  end
  begin
     id 25 
     name rhumerus
     direction -1 -4.48946e-011 -8.98298e-028  
     length 5.3519   
     axis 180 30 90   XYZ
    dof rx ry rz
    limits (-90.0 60.0)
           (-90.0 90.0)
           (-90.0 90.0)
  end
  begin
     id 26 
     name rradius
     direction -1 -4.4899e-011 -3.18779e-027   
     length 3.02531   
     axis 180 30 90   XYZ
    dof rx
    limits (-10.0 170.0)
  end
  begin
     id 27 
     name rwrist
     direction -1 -4.4897e-011 -1.03764e-026   
     length 1.51266   
     axis 9.09556e-015 -90 -90   XYZ
    dof ry
    limits (-180.0 0.0)
  end
  begin
     id 28
     name rhand
     direction -1 -4.48941e-011 -2.07528e-026   
     length 0.78389   
     axis 1.3242e-014 -90 -90   XYZ
    dof rx rz
    limits (-90.0 90.0)
           (-45.0 45.0)
  end
  begin
     id 29
     name rfingers
     direction -1 -4.49012e-011 -4.15056e-026   
     length 0.631992   
     axis 2.64841e-014 -90 -90   XYZ
    dof rx
    limits (0.0 90.0)
  end
  begin
     id 30
     name rthumb
     direction -0.707107 -6.3496e-011 0.707107   
     length 0.907418   
     axis -90 -45 -2.85299e-015   XYZ
    dof rx rz
    limits (-45.0 45.0)
           (-45.0 45.0)
  end
:hierarchy
  begin
    root lhipjoint rhipjoint lowerback
    lhipjoint lfemur
    lfemur ltibia
    ltibia lfoot
    lfoot ltoes
    rhipjoint rfemur
    rfemur rtibia
    rtibia rfoot
    rfoot rtoes
    lowerback upperback
    upperback thorax
    thorax lowerneck lclavicle rclavicle
    lowerneck upperneck
    upperneck head
    lclavicle lhumerus
    lhumerus lradius
    lradius lwrist
    lwrist lhand lthumb
    lhand lfingers
    rclavicle rhumerus
    rhumerus rradius
    rradius rwrist
    rwrist rhand rthumb
    rhand rfingers
  end

#!OML:ASF E:\Style3\Style3.ASF
:FULLY-SPECIFIED
:DEGREES
1835
root -0.420815 17.8711 0.767711 -113.926 86.4599 -125.91
lowerback -4.48119 -1.01368 -4.48041
upperback -3.0069 -1.12356 -0.834156
thorax -0.512671 -0.477107 1.60807
lowerneck -0.97736 -8.16569 -12.8745
upperneck 27.0585 -9.76461 2.22212
head 9.52634 -5.31991 2.10275
rclavicle -6.55989e-015 1.03368e-014
rhumerus -6.33829 47.462 -80.0745
rradius 129.226
rwrist 1.664
rhand -5.83011 8.04626
rfingers 7.12502
rthumb 19.9957 -20.9449
lclavicle -6.55989e-015 1.03368e-014
lhumerus -21.8337 -30.4294 94.3647
lradius 135.786
lwrist 33.5317
lhand -30.1877 4.52725
lfingers 7.12502
lthumb -3.49875 34.4783
rfemur -10.5957 13.1809 16.574
rtibia 7.33978
rfoot -7.31288 -20.6992
rtoes -21.6075
lfemur 0 0 0
ltibia 0
lfoot 0 0
ltoes 0
1836
root -0.417638 17.8712 0.76508 -113.83 86.5206 -125.802
lowerback -4.43462 -1.06054 -4.32315
upperback -3.04216 -1.19559 -0.788876
thorax -0.572286 -0.513456 1.56476
lowerneck -0.52273 -7.66921 -12.5529
upperneck 25.4754 -9.14339 1.88947
head 8.78821 -5.02366 2.03321
rclavicle 1.14301e-015 -1.82882e-014
rhumerus -6.70884 47.7623 -80.9074
rradius 129.327
rwrist 5.73273
rhand -9.56741 8.44565
rfingers 7.12502
rthumb 16.4002 -20.881
lclavicle 1.14301e-015 -1.82882e-014
lhumerus -22.0318 -30.3097 94.3186
lradius 135.914
lwrist 33.5361
lhand -30.189 4.44997
lfingers 7.12502
lthumb -3.49995 34.401
rfemur -10.5928 13.211 16.5101
rtibia 7.33567
rfoot -7.02912 -20.7222
rtoes -22.5307
lfemur 0 0 0
ltibia 0
lfoot 0 0
ltoes 0
1837
root -0.414242 17.8706 0.762254 -113.578 86.5524 -125.528
lowerback -4.37125 -1.13111 -4.19487
upperback -3.07455 -1.29944 -0.688981
thorax -0.63504 -0.565231 1.59286
lowerneck -0.0426791 -7.16121 -12.248
upperneck 23.8964 -8.49071 1.44059
head 8.06662 -4.71485 1.92687
rclavicle 1.98785e-015 -3.18055e-015
rhumerus -6.87767 47.9625 -81.5907
rradius 129.208
rwrist 9.61642
rhand -13.5688 8.87849
rfingers 7.12502
rthumb 12.5449 -20.7249
lclavicle 1.98785e-015 -3.18055e-015
lhumerus -22.17 -30.106 94.2838
lradius 135.982
lwrist 33.549
lhand -30.2506 4.37906
lfingers 7.12502
lthumb -3.55944 34.3291
rfemur -10.5753 13.241 16.4903
rtibia 7.35676
rfoot -6.58302 -20.7212
rtoes -24.1546
lfemur 0 0 0
ltibia 0
lfoot 0 0
ltoes 0
1838
root -0.411885 17.8709 0.760191 -112.945 86.5923 -124.886
lowerback -4.33644 -1.20601 -4.0778
upperback -3.10113 -1.40677 -0.570224
thorax -0.675095 -0.619025 1.64606
lowerneck 0.496259 -6.64347 -12.0333
upperneck 22.2472 -7.83923 0.97919
head 7.33909 -4.40417 1.82893
rclavicle -4.67144e-015 -7.15625e-015
rhumerus -7.06543 48.2353 -82.2726
rradius 129.04
rwrist 13.0593
rhand -17.8411 9.64625
rfingers 7.12502
rthumb 8.42367 -20.1658
lclavicle -4.67144e-015 -7.15625e-015
lhumerus -22.2875 -29.8558 94.239
lradius 136.056
lwrist 33.5141
lhand -30.4198 4.40524
lfingers 7.12502
lthumb -3.72287 34.3525
rfemur -10.5844 13.2945 16.4751
rtibia 7.40597
rfoot -6.574 -20.7389
rtoes -24.3407
lfemur 0 0 0
ltibia 0
lfoot 0 0
ltoes 0
1839
root -0.411287 17.8706 0.758444 -112.585 86.6697 -124.511
lowerback -4.33676 -1.2529 -4.0085
upperback -3.09189 -1.47266 -0.475551
thorax -0.660646 -0.653252 1.70183
lowerneck 1.13613 -6.17012 -11.7893
upperneck 20.4722 -7.2751 0.468044
head 6.57668 -4.12354 1.70384
rclavicle 3.37934e-015 8.74653e-015
rhumerus -7.14324 48.2553 -82.8522
rradius 128.938
rwrist 15.9524
rhand -21.5748 10.9697
rfingers 7.12502
rthumb 4.81931 -18.9555
lclavicle 3.37934e-015 8.74653e-015
lhumerus -22.3808 -29.7214 94.2145
lradius 136.181
lwrist 33.4915
lhand -30.4923 4.33877
lfingers 7.12502
lthumb -3.79288 34.2848
rfemur -10.5871 13.3455 16.4085
rtibia 7.46814
rfoot -7.0425 -20.7789
rtoes -22.6549
lfemur 0 0 0
ltibia 0
lfoot 0 0
ltoes 0
1840
root -0.411642 17.8711 0.758209 -112.549 86.7797 -124.472
lowerback -4.29985 -1.30941 -3.98829
upperback -3.10784 -1.5515 -0.394019
thorax -0.691326 -0.691816 1.77211
lowerneck 1.81693 -5.71199 -11.5218
upperneck 18.6991 -6.73691 -0.136705
head 5.82556 -3.84708 1.54155
rclavicle 1.29707e-014 3.4191e-014
rhumerus -7.13808 48.0637 -83.4487
rradius 128.875
rwrist 18.0983
rhand -24.4792 13.06
rfingers 7.12502
rthumb 2.01459 -16.9102
lclavicle 1.29707e-014 3.4191e-014
lhumerus -22.5212 -29.5397 94.2123
lradius 136.308
lwrist 33.4204
lhand -30.5563 4.36893
lfingers 7.12502
lthumb -3.85465 34.3138
rfemur -10.6492 13.3896 16.2999
rtibia 7.58259
rfoot -7.15409 -20.7998
rtoes -22.3706
lfemur 0 0 0
ltibia 0
lfoot 0 0
ltoes 0
